<?xml version="1.0" encoding="us-ascii" standalone="no"?><svg xmlns="http://www.w3.org/2000/svg" xmlns:xlink="http://www.w3.org/1999/xlink" contentStyleType="text/css" height="129px" preserveAspectRatio="none" style="width:346px;height:129px;background:#FFFFFF;" version="1.1" viewBox="0 0 346 129" width="346px" zoomAndPan="magnify"><defs/><g><text fill="#000000" font-family="sans-serif" font-size="14" font-weight="bold" lengthAdjust="spacing" textLength="85" x="77" y="22.9951">Mon projet</text><line style="stroke:#C0C0C0;stroke-width:1.0;" x1="0" x2="0" y1="37.2969" y2="113.3516"/><line style="stroke:#C0C0C0;stroke-width:1.0;" x1="16" x2="16" y1="37.2969" y2="113.3516"/><line style="stroke:#C0C0C0;stroke-width:1.0;" x1="32" x2="32" y1="37.2969" y2="113.3516"/><line style="stroke:#C0C0C0;stroke-width:1.0;" x1="48" x2="48" y1="37.2969" y2="113.3516"/><line style="stroke:#C0C0C0;stroke-width:1.0;" x1="64" x2="64" y1="37.2969" y2="113.3516"/><line style="stroke:#C0C0C0;stroke-width:1.0;" x1="80" x2="80" y1="37.2969" y2="113.3516"/><line style="stroke:#C0C0C0;stroke-width:1.0;" x1="96" x2="96" y1="37.2969" y2="113.3516"/><line style="stroke:#C0C0C0;stroke-width:1.0;" x1="112" x2="112" y1="37.2969" y2="113.3516"/><line style="stroke:#C0C0C0;stroke-width:1.0;" x1="128" x2="128" y1="37.2969" y2="113.3516"/><line style="stroke:#C0C0C0;stroke-width:1.0;" x1="144" x2="144" y1="37.2969" y2="113.3516"/><line style="stroke:#C0C0C0;stroke-width:1.0;" x1="160" x2="160" y1="37.2969" y2="113.3516"/><line style="stroke:#C0C0C0;stroke-width:1.0;" x1="176" x2="176" y1="37.2969" y2="113.3516"/><line style="stroke:#C0C0C0;stroke-width:1.0;" x1="192" x2="192" y1="37.2969" y2="113.3516"/><line style="stroke:#C0C0C0;stroke-width:1.0;" x1="208" x2="208" y1="37.2969" y2="113.3516"/><line style="stroke:#C0C0C0;stroke-width:1.0;" x1="224" x2="224" y1="37.2969" y2="113.3516"/><line style="stroke:#C0C0C0;stroke-width:1.0;" x1="240" x2="240" y1="37.2969" y2="113.3516"/><text fill="#000000" font-family="Serif" font-size="10" lengthAdjust="spacing" textLength="6" x="5" y="46.5791">1</text><text fill="#000000" font-family="Serif" font-size="10" lengthAdjust="spacing" textLength="6" x="21" y="46.5791">2</text><text fill="#000000" font-family="Serif" font-size="10" lengthAdjust="spacing" textLength="6" x="37" y="46.5791">3</text><text fill="#000000" font-family="Serif" font-size="10" lengthAdjust="spacing" textLength="6" x="53" y="46.5791">4</text><text fill="#000000" font-family="Serif" font-size="10" lengthAdjust="spacing" textLength="6" x="69" y="46.5791">5</text><text fill="#000000" font-family="Serif" font-size="10" lengthAdjust="spacing" textLength="6" x="85" y="46.5791">6</text><text fill="#000000" font-family="Serif" font-size="10" lengthAdjust="spacing" textLength="6" x="101" y="46.5791">7</text><text fill="#000000" font-family="Serif" font-size="10" lengthAdjust="spacing" textLength="6" x="117" y="46.5791">8</text><text fill="#000000" font-family="Serif" font-size="10" lengthAdjust="spacing" textLength="6" x="133" y="46.5791">9</text><text fill="#000000" font-family="Serif" font-size="10" lengthAdjust="spacing" textLength="12" x="146" y="46.5791">10</text><text fill="#000000" font-family="Serif" font-size="10" lengthAdjust="spacing" textLength="12" x="162" y="46.5791">11</text><text fill="#000000" font-family="Serif" font-size="10" lengthAdjust="spacing" textLength="12" x="178" y="46.5791">12</text><text fill="#000000" font-family="Serif" font-size="10" lengthAdjust="spacing" textLength="12" x="194" y="46.5791">13</text><text fill="#000000" font-family="Serif" font-size="10" lengthAdjust="spacing" textLength="12" x="210" y="46.5791">14</text><text fill="#000000" font-family="Serif" font-size="10" lengthAdjust="spacing" textLength="12" x="226" y="46.5791">15</text><line style="stroke:#C0C0C0;stroke-width:1.0;" x1="0" x2="240" y1="37.2969" y2="37.2969"/><line style="stroke:#C0C0C0;stroke-width:1.0;" x1="0" x2="240" y1="50.2969" y2="50.2969"/><rect fill="#ADFF2F" height="20.9531" style="stroke:none;stroke-width:1.0;" width="236" x="2" y="55.2969"/><line style="stroke:#0000FF;stroke-width:1.0;" x1="2" x2="238" y1="55.2969" y2="55.2969"/><line style="stroke:#0000FF;stroke-width:1.0;" x1="2" x2="238" y1="76.25" y2="76.25"/><line style="stroke:#0000FF;stroke-width:1.0;" x1="2" x2="2" y1="55.2969" y2="76.25"/><line style="stroke:#0000FF;stroke-width:1.0;" x1="238" x2="238" y1="55.2969" y2="76.25"/><polygon fill="#FFFF00" points="232,80.25,244,92.25,232,104.25,220,92.25" style="stroke:#FF0000;stroke-width:1.0;"/><text fill="#FF0000" font-family="Helvetica" font-size="18" font-weight="bold" lengthAdjust="spacing" textLength="159" x="6" y="72.0049">D&#233;veloppement</text><text fill="#0000FF" font-family="sans-serif" font-size="25" font-style="italic" lengthAdjust="spacing" textLength="97" x="247" y="103.4556">Release</text><line style="stroke:#C0C0C0;stroke-width:1.0;" x1="0" x2="0" y1="114.3516" y2="127.3516"/><line style="stroke:#C0C0C0;stroke-width:1.0;" x1="16" x2="16" y1="114.3516" y2="127.3516"/><line style="stroke:#C0C0C0;stroke-width:1.0;" x1="32" x2="32" y1="114.3516" y2="127.3516"/><line style="stroke:#C0C0C0;stroke-width:1.0;" x1="48" x2="48" y1="114.3516" y2="127.3516"/><line style="stroke:#C0C0C0;stroke-width:1.0;" x1="64" x2="64" y1="114.3516" y2="127.3516"/><line style="stroke:#C0C0C0;stroke-width:1.0;" x1="80" x2="80" y1="114.3516" y2="127.3516"/><line style="stroke:#C0C0C0;stroke-width:1.0;" x1="96" x2="96" y1="114.3516" y2="127.3516"/><line style="stroke:#C0C0C0;stroke-width:1.0;" x1="112" x2="112" y1="114.3516" y2="127.3516"/><line style="stroke:#C0C0C0;stroke-width:1.0;" x1="128" x2="128" y1="114.3516" y2="127.3516"/><line style="stroke:#C0C0C0;stroke-width:1.0;" x1="144" x2="144" y1="114.3516" y2="127.3516"/><line style="stroke:#C0C0C0;stroke-width:1.0;" x1="160" x2="160" y1="114.3516" y2="127.3516"/><line style="stroke:#C0C0C0;stroke-width:1.0;" x1="176" x2="176" y1="114.3516" y2="127.3516"/><line style="stroke:#C0C0C0;stroke-width:1.0;" x1="192" x2="192" y1="114.3516" y2="127.3516"/><line style="stroke:#C0C0C0;stroke-width:1.0;" x1="208" x2="208" y1="114.3516" y2="127.3516"/><line style="stroke:#C0C0C0;stroke-width:1.0;" x1="224" x2="224" y1="114.3516" y2="127.3516"/><line style="stroke:#C0C0C0;stroke-width:1.0;" x1="240" x2="240" y1="114.3516" y2="127.3516"/><text fill="#000000" font-family="Serif" font-size="10" lengthAdjust="spacing" textLength="6" x="5" y="123.6338">1</text><text fill="#000000" font-family="Serif" font-size="10" lengthAdjust="spacing" textLength="6" x="21" y="123.6338">2</text><text fill="#000000" font-family="Serif" font-size="10" lengthAdjust="spacing" textLength="6" x="37" y="123.6338">3</text><text fill="#000000" font-family="Serif" font-size="10" lengthAdjust="spacing" textLength="6" x="53" y="123.6338">4</text><text fill="#000000" font-family="Serif" font-size="10" lengthAdjust="spacing" textLength="6" x="69" y="123.6338">5</text><text fill="#000000" font-family="Serif" font-size="10" lengthAdjust="spacing" textLength="6" x="85" y="123.6338">6</text><text fill="#000000" font-family="Serif" font-size="10" lengthAdjust="spacing" textLength="6" x="101" y="123.6338">7</text><text fill="#000000" font-family="Serif" font-size="10" lengthAdjust="spacing" textLength="6" x="117" y="123.6338">8</text><text fill="#000000" font-family="Serif" font-size="10" lengthAdjust="spacing" textLength="6" x="133" y="123.6338">9</text><text fill="#000000" font-family="Serif" font-size="10" lengthAdjust="spacing" textLength="12" x="146" y="123.6338">10</text><text fill="#000000" font-family="Serif" font-size="10" lengthAdjust="spacing" textLength="12" x="162" y="123.6338">11</text><text fill="#000000" font-family="Serif" font-size="10" lengthAdjust="spacing" textLength="12" x="178" y="123.6338">12</text><text fill="#000000" font-family="Serif" font-size="10" lengthAdjust="spacing" textLength="12" x="194" y="123.6338">13</text><text fill="#000000" font-family="Serif" font-size="10" lengthAdjust="spacing" textLength="12" x="210" y="123.6338">14</text><text fill="#000000" font-family="Serif" font-size="10" lengthAdjust="spacing" textLength="12" x="226" y="123.6338">15</text><line style="stroke:#C0C0C0;stroke-width:1.0;" x1="0" x2="240" y1="114.3516" y2="114.3516"/><!--SRC=[RL3RJW9137scNz4tzK5bKTGGOuoW60GrWXf3U2YxTHsTdI4ptJLe-22_mnzp5l0MVMdJqzDpJdheXPoaP4HWtyjKym7CfvQYr566hr0HyazbhvnO8-UKCPwoBbXKJ4kmQRLrw3XPpdtrmXZjVKwbB8wjBjT753-rdSrDiZXgEsPpnrhRvx3jAiCBVAnpXieCAfdIxCKQ_ehma_1jLwl_ibD2MiN_64x_Uis3ps06-vlB5uYIeD6p1YVEFhB0iFN-Lh2sambdR6I4v74uY4QeoOl7g8u9JJqChrWpUHxX0mMgyKWovwruP9F0OIYBPyEb3lswryM2dLV1ATgeLMjR6r5rzPOJxEGQenf6kutwTgEwYytZ_W1BmXgijY-xw6tkOiP4UN5gd4jGM8CE5OHNkH6LSGClGe1Ew-mJm6DJA6TDcHywDxrlmixs-f4IxBCBMV2c1os-frnBk8XjeapQmEl1oVeUTCcaEQL1cmqqmq_5JSEk_m40]--></g></svg>