<?xml version="1.0" encoding="UTF-8" standalone="no"?>
<!DOCTYPE svg PUBLIC "-//W3C//DTD SVG 1.1//EN"
 "http://www.w3.org/Graphics/SVG/1.1/DTD/svg11.dtd">
<!-- Generated by graphviz version 2.43.0 (0)
 -->
<!-- Title: finite_state_machine Pages: 1 -->
<svg width="828pt" height="318pt"
 viewBox="0.00 0.00 827.76 318.19" xmlns="http://www.w3.org/2000/svg" xmlns:xlink="http://www.w3.org/1999/xlink">
<g id="graph0" class="graph" transform="scale(1 1) rotate(0) translate(4 314.19)">
<title>finite_state_machine</title>
<polygon fill="white" stroke="transparent" points="-4,4 -4,-314.19 823.76,-314.19 823.76,4 -4,4"/>
<!-- 0 -->
<g id="node1" class="node">
<title>0</title>
<ellipse fill="lightblue" stroke="black" cx="30" cy="-124.2" rx="26" ry="26"/>
<ellipse fill="none" stroke="black" cx="30" cy="-124.2" rx="30" ry="30"/>
<text text-anchor="middle" x="30" y="-120.5" font-family="Helvetica,Arial,sans-serif" font-size="14.00">Bac</text>
</g>
<!-- 4 -->
<g id="node3" class="node">
<title>4</title>
<ellipse fill="lightblue" stroke="black" cx="174.19" cy="-189.2" rx="27.9" ry="27.9"/>
<ellipse fill="none" stroke="black" cx="174.19" cy="-189.2" rx="31.9" ry="31.9"/>
<text text-anchor="middle" x="174.19" y="-185.5" font-family="Helvetica,Arial,sans-serif" font-size="14.00">BTS</text>
</g>
<!-- 0&#45;&gt;4 -->
<g id="edge6" class="edge">
<title>0&#45;&gt;4</title>
<path fill="none" stroke="black" d="M57.74,-136.42C79.62,-146.42 110.82,-160.68 135.27,-171.86"/>
<polygon fill="black" stroke="black" points="134.06,-175.16 144.61,-176.13 136.97,-168.79 134.06,-175.16"/>
<text text-anchor="middle" x="95" y="-164" font-family="Helvetica,Arial,sans-serif" font-size="14.00">2 ans</text>
</g>
<!-- 2 -->
<g id="node4" class="node">
<title>2</title>
<ellipse fill="lightgray" stroke="black" cx="317.13" cy="-124.2" rx="36" ry="36"/>
<text text-anchor="middle" x="317.13" y="-120.5" font-family="Helvetica,Arial,sans-serif" font-size="14.00">BUT 2</text>
</g>
<!-- 0&#45;&gt;2 -->
<g id="edge1" class="edge">
<title>0&#45;&gt;2</title>
<path fill="none" stroke="black" d="M60.17,-124.2C109.98,-124.2 211.76,-124.2 270.87,-124.2"/>
<polygon fill="black" stroke="black" points="271.03,-127.7 281.03,-124.2 271.03,-120.7 271.03,-127.7"/>
<text text-anchor="middle" x="174.19" y="-128" font-family="Helvetica,Arial,sans-serif" font-size="14.00">2 ans</text>
</g>
<!-- 8 -->
<g id="node5" class="node">
<title>8</title>
<ellipse fill="aquamarine" stroke="black" cx="174.19" cy="-44.2" rx="44.39" ry="44.39"/>
<text text-anchor="middle" x="174.19" y="-40.5" font-family="Helvetica,Arial,sans-serif" font-size="14.00">emploi 1</text>
</g>
<!-- 0&#45;&gt;8 -->
<g id="edge5" class="edge">
<title>0&#45;&gt;8</title>
<path fill="none" stroke="black" d="M56.42,-109.89C75.9,-98.93 103.31,-83.51 126.68,-70.36"/>
<polygon fill="black" stroke="black" points="128.42,-73.4 135.41,-65.45 124.98,-67.3 128.42,-73.4"/>
</g>
<!-- 3 -->
<g id="node2" class="node">
<title>3</title>
<ellipse fill="lightblue" stroke="black" cx="462.13" cy="-160.2" rx="42.47" ry="42.47"/>
<ellipse fill="none" stroke="black" cx="462.13" cy="-160.2" rx="46.49" ry="46.49"/>
<text text-anchor="middle" x="462.13" y="-156.5" font-family="Helvetica,Arial,sans-serif" font-size="14.00">BUT RT</text>
</g>
<!-- 5 -->
<g id="node6" class="node">
<title>5</title>
<ellipse fill="lightblue" stroke="black" cx="642.37" cy="-258.2" rx="51.99" ry="51.99"/>
<text text-anchor="middle" x="642.37" y="-254.5" font-family="Helvetica,Arial,sans-serif" font-size="14.00">Ecole ingé</text>
</g>
<!-- 3&#45;&gt;5 -->
<g id="edge7" class="edge">
<title>3&#45;&gt;5</title>
<path fill="none" stroke="black" d="M503.13,-182.19C528.03,-195.88 560.36,-213.66 587.5,-228.58"/>
<polygon fill="black" stroke="black" points="586.04,-231.77 596.49,-233.52 589.41,-225.63 586.04,-231.77"/>
<text text-anchor="middle" x="549.37" y="-221" font-family="Helvetica,Arial,sans-serif" font-size="14.00">2&#45;3 ans</text>
</g>
<!-- 7 -->
<g id="node8" class="node">
<title>7</title>
<ellipse fill="aquamarine" stroke="black" cx="642.37" cy="-144.2" rx="44.39" ry="44.39"/>
<text text-anchor="middle" x="642.37" y="-140.5" font-family="Helvetica,Arial,sans-serif" font-size="14.00">emploi 2</text>
</g>
<!-- 3&#45;&gt;7 -->
<g id="edge9" class="edge">
<title>3&#45;&gt;7</title>
<path fill="none" stroke="black" d="M508.57,-156.12C532.77,-153.94 562.69,-151.26 587.99,-148.99"/>
<polygon fill="black" stroke="black" points="588.52,-152.45 598.16,-148.07 587.89,-145.48 588.52,-152.45"/>
</g>
<!-- 4&#45;&gt;3 -->
<g id="edge4" class="edge">
<title>4&#45;&gt;3</title>
<path fill="none" stroke="black" d="M206.06,-186.07C253.84,-181.22 346.38,-171.83 405.88,-165.8"/>
<polygon fill="black" stroke="black" points="406.26,-169.28 415.86,-164.79 405.56,-162.31 406.26,-169.28"/>
<text text-anchor="middle" x="317.13" y="-181" font-family="Helvetica,Arial,sans-serif" font-size="14.00">1 an</text>
</g>
<!-- 4&#45;&gt;2 -->
<g id="edge3" class="edge">
<title>4&#45;&gt;2</title>
<path fill="none" stroke="black" d="M203.71,-176.04C224.22,-166.59 252.17,-153.7 275.07,-143.14"/>
<polygon fill="black" stroke="black" points="276.6,-146.28 284.21,-138.92 273.67,-139.93 276.6,-146.28"/>
<text text-anchor="middle" x="249.89" y="-164" font-family="Helvetica,Arial,sans-serif" font-size="14.00">1 an</text>
</g>
<!-- 2&#45;&gt;3 -->
<g id="edge2" class="edge">
<title>2&#45;&gt;3</title>
<path fill="none" stroke="black" d="M352.02,-132.73C368.54,-136.89 388.81,-141.99 407.37,-146.66"/>
<polygon fill="black" stroke="black" points="406.63,-150.09 417.19,-149.13 408.34,-143.3 406.63,-150.09"/>
<text text-anchor="middle" x="384.38" y="-148" font-family="Helvetica,Arial,sans-serif" font-size="14.00">1 an</text>
</g>
<!-- 6 -->
<g id="node7" class="node">
<title>6</title>
<ellipse fill="aquamarine" stroke="black" cx="775.56" cy="-258.2" rx="44.39" ry="44.39"/>
<text text-anchor="middle" x="775.56" y="-254.5" font-family="Helvetica,Arial,sans-serif" font-size="14.00">emploi 3</text>
</g>
<!-- 5&#45;&gt;6 -->
<g id="edge8" class="edge">
<title>5&#45;&gt;6</title>
<path fill="none" stroke="black" d="M694.47,-258.2C703.15,-258.2 712.2,-258.2 720.95,-258.2"/>
<polygon fill="black" stroke="black" points="721.05,-261.7 731.05,-258.2 721.05,-254.7 721.05,-261.7"/>
</g>
</g>
</svg>
