<svg xmlns="http://www.w3.org/2000/svg" xmlns:xlink="http://www.w3.org/1999/xlink" contentStyleType="text/css" height="316.6667px" preserveAspectRatio="none" style="width:366px;height:316px;" version="1.1" viewBox="0 0 366 316" width="366.6667px" zoomAndPan="magnify"><defs><linearGradient id="g1cw6iyykgg2us0" x1="50%" x2="50%" y1="0%" y2="100%"><stop offset="0%" stop-color="#33B2E2"/><stop offset="100%" stop-color="#009FDB"/></linearGradient></defs><g><line style="stroke:#C2C2C2;stroke-width:1.0416666666666667;stroke-dasharray:5.0,5.0;" x1="77.0833" x2="77.0833" y1="57.2591" y2="261.2956"/><line style="stroke:#C2C2C2;stroke-width:1.0416666666666667;stroke-dasharray:5.0,5.0;" x1="327.7618" x2="327.7618" y1="57.2591" y2="261.2956"/><rect fill="url(#g1cw6iyykgg2us0)" height="45.8008" rx="10.4167" ry="10.4167" style="stroke:#33B2E2;stroke-width:1.0416666666666667;" width="61.3098" x="46.875" y="10.4167"/><text fill="#FFFFFF" font-family="Verdana" font-size="12.5" lengthAdjust="spacing" textLength="30.0598" x="62.5" y="37.6444">Alice</text><rect fill="url(#g1cw6iyykgg2us0)" height="45.8008" rx="10.4167" ry="10.4167" style="stroke:#33B2E2;stroke-width:1.0416666666666667;" width="61.3098" x="46.875" y="260.2539"/><text fill="#FFFFFF" font-family="Verdana" font-size="12.5" lengthAdjust="spacing" textLength="30.0598" x="62.5" y="287.4817">Alice</text><rect fill="url(#g1cw6iyykgg2us0)" height="45.8008" rx="10.4167" ry="10.4167" style="stroke:#33B2E2;stroke-width:1.0416666666666667;" width="55.4077" x="300.6785" y="10.4167"/><text fill="#FFFFFF" font-family="Verdana" font-size="12.5" lengthAdjust="spacing" textLength="24.1577" x="316.3035" y="37.6444">Bob</text><rect fill="url(#g1cw6iyykgg2us0)" height="45.8008" rx="10.4167" ry="10.4167" style="stroke:#33B2E2;stroke-width:1.0416666666666667;" width="55.4077" x="300.6785" y="260.2539"/><text fill="#FFFFFF" font-family="Verdana" font-size="12.5" lengthAdjust="spacing" textLength="24.1577" x="316.3035" y="287.4817">Bob</text><polygon fill="#009FDB" points="315.8824,100.9766,326.299,105.1432,315.8824,109.3099,320.049,105.1432" style="stroke:#009FDB;stroke-width:1.0416666666666667;"/><line style="stroke:#009FDB;stroke-width:3.125;" x1="77.5299" x2="322.1324" y1="105.1432" y2="105.1432"/><text fill="#5A5A5A" font-family="Verdana" font-size="12.5" lengthAdjust="spacing" textLength="147.0703" x="93.1549" y="91.7786">Authentication Request</text><polygon fill="#009FDB" points="88.9882,146.7773,78.5716,150.944,88.9882,155.1107,84.8216,150.944" style="stroke:#009FDB;stroke-width:1.0416666666666667;"/><line style="stroke:#009FDB;stroke-width:3.125;stroke-dasharray:2.0,2.0;" x1="82.7382" x2="327.3407" y1="150.944" y2="150.944"/><text fill="#5A5A5A" font-family="Verdana" font-size="12.5" lengthAdjust="spacing" textLength="156.3293" x="103.5716" y="137.5793">Authentication Response</text><polygon fill="#009FDB" points="315.8824,192.5781,326.299,196.7448,315.8824,200.9115,320.049,196.7448" style="stroke:#009FDB;stroke-width:1.0416666666666667;"/><line style="stroke:#009FDB;stroke-width:3.125;" x1="77.5299" x2="322.1324" y1="196.7448" y2="196.7448"/><text fill="#5A5A5A" font-family="Verdana" font-size="12.5" lengthAdjust="spacing" textLength="199.9268" x="93.1549" y="183.3801">Another authentication Request</text><polygon fill="#009FDB" points="88.9882,238.3789,78.5716,242.5456,88.9882,246.7122,84.8216,242.5456" style="stroke:#009FDB;stroke-width:1.0416666666666667;"/><line style="stroke:#009FDB;stroke-width:3.125;stroke-dasharray:2.0,2.0;" x1="82.7382" x2="327.3407" y1="242.5456" y2="242.5456"/><text fill="#5A5A5A" font-family="Verdana" font-size="12.5" lengthAdjust="spacing" textLength="209.1858" x="103.5716" y="229.1809">Another authentication Response</text><!--SRC=[Kop9ICrDLKZAAKrDBqgiv7BCoKnELT2rKt3AJx9IS2m5IkULP2OdbcJcvoa4fHQMfXQNS07b57I1Qi2AiQWgBiZFAqxbGZSiBn-ehaWX4RkX4CKskhe4L4CC1m00]--></g></svg>